Patient4_TMGait_0pt4_01_right_28_EMG.mot
version=1
nRows=20
nColumns=33
inDegrees=no
endheader
time	1LAddLong	2LGlutMax	3LGlutMed	4LIliopsoas	5LSemiMemb	6LBicFemLong	7LRecFem	8LVastMed	9LVastLat	10LGasMed	11LTibAnt	12lTibPost	13LPeroneusLong	14LSol	15LExtDigLong	16LFlexDigLong	17RAddLong	18RGlutMax	19RGlutMed	20RIliopsoas	21RSemiMemb	22RBicFemLong	23RRecFem	24RVastMed	25RVastLat	26RGasMed	27RTibAnt	28RTibPost	29RPeroneusLong	30RSol	31RExtDigLong	32RFlexDigLong
37.485	0.008392	0.02121	-0.1622	-0.006409	0.014801	0.008545	0.006866	-0.001831	0.016632	0.073395	-0.028534	0.00061	0.087891	0.044861	0.023956	-0.00061	0.06012	-0.000763	-0.25375	-0.033264	0.025635	0.16037	-0.090179	-0.008698	-0.003815	0.029144	0.076447	-0.000916	-0.014343	-0.023193	-0.00412	-0.21378
37.486	0.001526	0.014191	-0.10666	-0.010986	0.020447	-0.00473	0.01297	-0.006256	0.007935	0.23254	0.002289	-0.005646	-0.22034	0.019989	-0.019379	-0.001678	0.039673	0.067902	-0.30121	0.00885	-0.006714	0.21881	-0.066071	0.004272	-0.005188	0.033722	-0.10407	-0.004272	-0.072632	0.022736	-0.003815	-0.16235
37.487	-0.000153	-0.016022	0.00824	-0.007324	0.021057	0.014648	0.01709	-0.003357	0.011749	0.18906	0.012665	0.001678	-0.15976	0.075989	-0.040741	0.008087	0.072327	0.041351	-0.38986	-0.01297	0.025482	0.19653	-0.062866	-0.021057	-0.00061	0.031281	-0.051422	-0.000305	-0.075989	0.014954	-0.002594	-0.12314
37.488	-0.00412	0.017395	-0.052032	-0.007782	0.016785	0.026093	0.008087	0.00824	0.004578	0.097046	0.01236	-0.009308	-0.07431	0.16434	-0.019379	0.007172	0.12009	0.06958	-0.49179	-0.004425	0.027771	0.20584	-0.067902	-0.033264	-0.015259	0.034485	-0.019989	-0.008392	0.11536	-0.031281	-0.000916	-0.084991
37.489	-0.006256	0.027466	0.14694	0.009766	0.02243	0.016022	0.007629	-0.001526	0.009155	0.037384	-0.023804	-0.006256	-0.17502	0.19257	-0.017853	-0.004883	0.068054	0.10178	-0.33859	-0.031433	-0.14252	0.23789	-0.071411	-0.02533	-0.007782	0.034485	0.004425	-0.010834	0.1297	0.005646	-0.002289	-0.054321
37.49	0.011749	0.031433	0.11627	0.037537	0.019379	0.002441	0.004883	-0.006866	0.01709	0.12695	-0.016174	-0.006866	-0.14389	0.12283	-0.046844	0.012207	0.014343	0.097198	0.50201	-0.079193	-0.0914	0.22675	-0.099792	-0.04715	-0.000305	0.03418	0.043488	-0.006256	0.21118	-0.007019	-0.002747	-0.028229
37.491	0.009155	-0.026855	0.057373	0.007629	0.006409	-0.022125	0.026245	-0.006866	0.019226	-0.025024	-0.022278	-0.005646	0.01236	0.045319	-0.001678	0.015564	-0.045929	0.046082	0.79178	-0.063934	-0.035553	0.21942	-0.051727	-0.06134	-0.009613	0.035858	0.051117	-0.000153	0.18768	-0.010834	-0.001678	-0.00061
37.492	0.001526	-0.065155	0.099182	0.000458	0.000916	-0.009766	0.069122	-0.003662	0.010834	-0.43701	-0.01297	0.003204	-0.001526	-0.16052	0.006104	0.011749	-0.072937	-0.031433	-0.16617	0.032043	0.010071	0.23438	-0.071106	-0.070496	-0.008087	0.036774	-0.017853	-0.007019	0.067596	0.008698	-0.003357	0.020599
37.493	-0.005341	-0.056763	0.070038	0.015869	-0.009308	0.022125	0.13336	-0.001221	-0.000763	-0.23865	-0.022736	0.042114	-0.006104	-0.21484	-0.007782	-0.00885	-0.10101	-0.050659	-0.45029	0.12131	0.029602	0.24521	-0.058746	-0.040894	-0.002899	0.034027	-0.056763	-0.003815	-0.10773	-0.005646	0.00351	0.035706
37.494	-0.004272	-0.026703	-0.04303	0.01709	-0.040741	-0.023346	0.14481	-0.008392	-0.005951	-0.018311	0.012054	0.56442	-0.089874	-0.10407	-0.003052	-0.016327	-0.087433	0.02182	0.13138	0.08316	-0.064392	0.23926	-0.074921	0.000916	0.007324	0.031281	-0.044556	-0.008698	-0.32608	-0.010529	0.001831	0.050659
37.495	0.00412	-0.004272	-0.066986	-0.000916	-0.003815	-0.06073	0.13718	-0.001068	-0.024719	0.015717	0.017548	-0.09964	-0.16174	-0.037994	-0.013123	0.10056	-0.058899	-0.045166	0.43304	0.02121	-0.20569	0.20599	-0.089874	0.035706	0.013428	0.028687	-0.060883	0.00061	-0.24536	-0.020447	-0.000458	0.065613
37.496	0.011444	-0.030823	0.013733	-0.011139	0.017853	-0.037994	0.15579	0.005035	-0.072327	-0.001984	0.005798	-0.15213	-0.027161	-0.050812	-0.005493	0.09903	-0.024719	0.007019	0.60928	-0.043488	-0.42419	0.22308	-0.078583	0.029755	0.011902	0.034027	0.023956	0.001373	-0.16266	-0.069733	-0.003357	0.074158
37.497	0.01358	-0.053558	0.040436	0.011902	0.060425	-0.019836	0.037079	0.018463	-0.13001	-0.24353	0.001831	-0.013885	0.025482	0.009308	0.01236	-0.72678	0.010986	-0.041656	0.25101	-0.020447	-0.55313	0.21332	-0.093689	-0.028992	0.003052	0.03418	0.27679	0.008698	-0.22553	-0.076141	0	0.077667
37.498	0.022736	-0.03006	0.032196	0.02243	0.039673	0.019226	-0.13275	0.015411	-0.11978	-0.31921	-0.006256	-0.072174	0.009613	0.14587	0.019836	0.14633	0.028839	-0.086975	-0.040894	0.029449	-0.37094	0.18555	-0.044556	-0.010223	0.004578	0.031128	0.42114	0.001678	-0.07019	-0.053711	-0.001526	0.08667
37.499	0.011597	-0.03067	-0.055084	0.021667	0.015106	0.023956	-0.19226	0.004272	-0.062714	-0.18601	0.014191	-0.069122	-0.019379	-0.0354	0.004425	0.29068	0.028076	-0.016174	-0.047455	-0.029755	0.3157	0.1442	-0.058746	-0.000305	0.001526	0.023346	0.25009	0.002747	-0.40329	-0.02594	-0.001373	0.086517
37.5	-0.000916	-0.020599	0.002289	0.002441	0.020142	0.027618	-0.14694	-0.000916	-0.058289	0.012054	0.00473	-0.097198	0.044861	0.1329	0.006104	0.3801	0.015869	-0.021362	-0.10529	-0.13275	0.15717	0.11475	-0.079651	-0.023499	0.002136	0.027161	0.28564	0	-0.4982	0.011444	-0.002441	0.086365
37.501	0.013733	-0.007172	0.034485	-0.006714	0.018005	-0.002441	-0.17319	0.00061	0.087738	-0.085449	-0.002747	0.001678	0.061035	0.048523	0.004425	0.1535	-0.029144	0	-0.013275	-0.23575	0.18753	0.20172	-0.069733	0.043793	0.000458	0.033112	-0.13809	0.00061	-0.35034	0.028229	0.000305	0.075989
37.502	0.01297	-0.018005	-0.07309	-0.000305	0.023193	-0.010681	-0.13687	-0.02182	0.15778	0.1889	-0.01297	-0.06134	0.048065	-0.069427	-0.001984	-0.24735	-0.06134	-0.027924	-0.13229	-0.17258	0.42419	0.24857	-0.083618	0.079498	0.007629	0.033264	-0.27191	-0.000916	0.35111	-0.10986	-0.002441	0.084991
37.503	0.001068	-0.055847	-0.050964	-0.005188	0.01709	0.014191	-0.068512	-0.002136	0.13443	0.030212	0.013123	-0.025635	0.014648	-0.12924	0.007782	-0.17593	-0.033569	0.024719	-0.11627	0.041656	0.15533	0.29511	-0.084534	0.091095	-0.006714	0.029449	-0.3537	-0.000153	0.81406	-0.030975	-0.00351	0.082855
37.504	-0.002136	-0.0177	-0.028534	0.003967	0.01297	0.019684	0.000458	-0.033417	0.13809	-0.12756	0.005493	-0.038605	-0.010071	-0.29755	0.002441	0.096893	-0.009155	-0.052948	0.15884	0.25207	0.07843	0.29678	-0.050964	0.091858	-0.001831	0.02594	-0.3569	0.000305	0.77087	0.046082	0.006866	0.075684
